<svg id="Layer_1" data-name="Layer 1" xmlns="http://www.w3.org/2000/svg" viewBox="0 0 28 27.31"><defs><style>.cls-1{fill:#fff;fill-rule:evenodd;}</style></defs><title>icon-github</title><path class="cls-1" d="M15,1.35a14,14,0,0,0-4.42,27.28,0.7,0.7,0,0,0,1-.67c0-.33,0-1.21,0-2.38C7.62,26.42,6.8,23.7,6.8,23.7a3.71,3.71,0,0,0-1.55-2c-1.27-.87.1-0.85,0.1-0.85a2.94,2.94,0,0,1,2.14,1.44,3,3,0,0,0,4.07,1.16,3,3,0,0,1,.89-1.87C9.34,21.18,6.07,20,6.07,14.61a5.41,5.41,0,0,1,1.44-3.76,5,5,0,0,1,.14-3.71s1.18-.38,3.85,1.44a13.27,13.27,0,0,1,7,0c2.67-1.81,3.85-1.44,3.85-1.44a5,5,0,0,1,.14,3.71,5.4,5.4,0,0,1,1.44,3.76c0,5.38-3.27,6.56-6.39,6.91a3.34,3.34,0,0,1,1,2.59c0,1.87,0,3.38,0,3.84a0.7,0.7,0,0,0,1,.67A14,14,0,0,0,15,1.35Z" transform="translate(-1 -1.35)"/></svg>