<svg id="Layer_1" data-name="Layer 1" xmlns="http://www.w3.org/2000/svg" viewBox="0 0 20 20"><defs><style>.cls-1{fill:#ed0034;}</style></defs><title>icon-delete</title><path class="cls-1" d="M11,1A10,10,0,1,0,21,11,10,10,0,0,0,11,1Zm0,2.62A7.37,7.37,0,1,1,3.62,11,7.35,7.35,0,0,1,11,3.62Zm-3.42,3a1.22,1.22,0,0,0-.73,2.09l2.33,2.33L6.85,13.41a1.22,1.22,0,1,0,1.73,1.73h0l2.33-2.33,2.33,2.33A1.22,1.22,0,1,0,15,13.46L15,13.41l-2.33-2.33L15,8.75A1.21,1.21,0,1,0,13.24,7L10.91,9.36,8.58,7a1.22,1.22,0,0,0-.88-0.37H7.57Z" transform="translate(-1 -1)"/></svg>